<svg width="12" height="13" viewBox="0 0 12 13" fill="none" xmlns="http://www.w3.org/2000/svg">
<path d="M5.5 5.99001C5.5 5.8574 5.55268 5.73023 5.64645 5.63646C5.74021 5.54269 5.86739 5.49001 6 5.49001C6.13261 5.49001 6.25979 5.54269 6.35355 5.63646C6.44732 5.73023 6.5 5.8574 6.5 5.99001V8.99001C6.5 9.12262 6.44732 9.2498 6.35355 9.34357C6.25979 9.43733 6.13261 9.49001 6 9.49001C5.86739 9.49001 5.74021 9.43733 5.64645 9.34357C5.55268 9.2498 5.5 9.12262 5.5 8.99001V5.99001ZM6 3.52551C5.86739 3.52551 5.74021 3.57819 5.64645 3.67196C5.55268 3.76573 5.5 3.8929 5.5 4.02551C5.5 4.15812 5.55268 4.2853 5.64645 4.37907C5.74021 4.47283 5.86739 4.52551 6 4.52551C6.13261 4.52551 6.25979 4.47283 6.35355 4.37907C6.44732 4.2853 6.5 4.15812 6.5 4.02551C6.5 3.8929 6.44732 3.76573 6.35355 3.67196C6.25979 3.57819 6.13261 3.52551 6 3.52551Z" fill="#F8F8F8"/>
<path fill-rule="evenodd" clip-rule="evenodd" d="M6 1.5C3.2385 1.5 1 3.7385 1 6.5C1 9.2615 3.2385 11.5 6 11.5C8.7615 11.5 11 9.2615 11 6.5C11 3.7385 8.7615 1.5 6 1.5ZM2 6.5C2 7.56087 2.42143 8.57828 3.17157 9.32843C3.92172 10.0786 4.93913 10.5 6 10.5C7.06087 10.5 8.07828 10.0786 8.82843 9.32843C9.57857 8.57828 10 7.56087 10 6.5C10 5.43913 9.57857 4.42172 8.82843 3.67157C8.07828 2.92143 7.06087 2.5 6 2.5C4.93913 2.5 3.92172 2.92143 3.17157 3.67157C2.42143 4.42172 2 5.43913 2 6.5Z" fill="#F8F8F8"/>
</svg>
