<svg width="25" height="24" viewBox="0 0 25 24" fill="none" xmlns="http://www.w3.org/2000/svg">
<path opacity="0.4" d="M4.23438 17.4219L10.3201 21.3407C11.6383 22.1895 13.3308 22.19 14.6494 21.3419L20.7445 17.4219" stroke="#1A73E8" stroke-width="1.5" stroke-linecap="round"/>
<path opacity="0.5" d="M4.23438 13.2344L10.3201 17.1532C11.6383 18.002 13.3308 18.0025 14.6494 17.1544L18.5 14.6779" stroke="#1A73E8" stroke-width="1.5" stroke-linecap="round"/>
<path opacity="0.6" d="M15.294 3.01911L14.0836 2.2664C13.1135 1.66315 11.8851 1.66315 10.915 2.2664L5.17038 5.83887C3.92675 6.61226 3.90869 8.41601 5.13659 9.21414L10.8643 12.9372C11.8585 13.5834 13.1401 13.5834 14.1343 12.9372L16.5041 11.3968" stroke="#1A73E8" stroke-width="1.49862" stroke-linecap="round"/>
<path d="M18.5 3.5V9.5" stroke="#1A73E8" stroke-width="1.5" stroke-linecap="round" stroke-linejoin="round"/>
<path d="M15.5 6.5H21.5" stroke="#1A73E8" stroke-width="1.5" stroke-linecap="round" stroke-linejoin="round"/>
</svg>
