<svg width="12" height="13" viewBox="0 0 12 13" fill="none" xmlns="http://www.w3.org/2000/svg">
<path fill-rule="evenodd" clip-rule="evenodd" d="M3.04688 1.42212V0.812744H1.82812V1.42212V7.38953C0.776815 7.66012 0 8.61445 0 9.75024C0 11.0965 1.09131 12.1877 2.4375 12.1877C3.59166 12.1877 4.55847 11.3856 4.81081 10.3084C5.98895 10.1461 7.09004 9.60375 7.94056 8.75331C8.79101 7.90278 9.33335 6.8017 9.49561 5.62356C10.5728 5.37121 11.375 4.40441 11.375 3.25024C11.375 1.90405 10.2837 0.812744 8.9375 0.812744C7.59127 0.812744 6.5 1.90405 6.5 3.25024C6.5 4.36393 7.24688 5.30316 8.26711 5.59439C8.11923 6.45884 7.70713 7.2631 7.07875 7.8915C6.45036 8.51988 5.64609 8.93198 4.78164 9.07985C4.54544 8.2524 3.88296 7.60473 3.04688 7.38953V1.42212ZM10.1562 3.25024C10.1562 3.92334 9.61058 4.46899 8.9375 4.46899C8.26442 4.46899 7.71875 3.92334 7.71875 3.25024C7.71875 2.57714 8.26442 2.03149 8.9375 2.03149C9.61058 2.03149 10.1562 2.57714 10.1562 3.25024ZM2.4375 10.969C3.1106 10.969 3.65625 10.4233 3.65625 9.75024C3.65625 9.07717 3.1106 8.53149 2.4375 8.53149C1.7644 8.53149 1.21875 9.07717 1.21875 9.75024C1.21875 10.4233 1.7644 10.969 2.4375 10.969Z" fill="#C4C4C4" fill-opacity="0.66"/>
</svg>
