<svg width="36" height="36" viewBox="0 0 36 36" fill="none" xmlns="http://www.w3.org/2000/svg">
<path d="M18 0.5C15.6362 0.5 13.2956 0.963889 11.1117 1.86518C8.92784 2.76647 6.94353 4.08752 5.27208 5.75289C1.89642 9.11625 0 13.678 0 18.4345C0 26.3615 5.166 33.0869 12.312 35.4722C13.212 35.6157 13.5 35.0597 13.5 34.5755V31.5446C8.514 32.6206 7.452 29.1413 7.452 29.1413C6.624 27.061 5.454 26.505 5.454 26.505C3.816 25.393 5.58 25.4289 5.58 25.4289C7.38 25.5545 8.334 27.2762 8.334 27.2762C9.9 30.0022 12.546 29.1952 13.572 28.7647C13.734 27.599 14.202 26.8099 14.706 26.3615C10.71 25.9131 6.516 24.3708 6.516 17.5377C6.516 15.547 7.2 13.9509 8.37 12.6775C8.19 12.2291 7.56 10.364 8.55 7.94281C8.55 7.94281 10.062 7.45858 13.5 9.77212C14.922 9.37756 16.47 9.18028 18 9.18028C19.53 9.18028 21.078 9.37756 22.5 9.77212C25.938 7.45858 27.45 7.94281 27.45 7.94281C28.44 10.364 27.81 12.2291 27.63 12.6775C28.8 13.9509 29.484 15.547 29.484 17.5377C29.484 24.3887 25.272 25.8952 21.258 26.3436C21.906 26.8995 22.5 27.9935 22.5 29.6615V34.5755C22.5 35.0597 22.788 35.6336 23.706 35.4722C30.852 33.069 36 26.3615 36 18.4345C36 16.0793 35.5344 13.7472 34.6298 11.5712C33.7252 9.39534 32.3994 7.41825 30.7279 5.75289C29.0565 4.08752 27.0722 2.76647 24.8883 1.86518C22.7044 0.963889 20.3638 0.5 18 0.5Z" fill="#853BCE"/>
</svg>
